<svg id="Logo_AKENEO_-_Couleur_-_Fond_Noir" data-name="Logo AKENEO - Couleur - Fond Noir" xmlns="http://www.w3.org/2000/svg" viewBox="0 0 324 84.58"><defs><style>.cls-1{fill:#4f5bc6;}</style></defs><path class="cls-1" d="M38.37,50.47a31,31,0,0,1,.23-6A20.9,20.9,0,0,1,40,39.26a53.17,53.17,0,0,1,4.35-8.33c1.56-2.63,3.33-5.49,3.85-8.55.68-4-2-8.14-4.28-11.21A61.51,61.51,0,0,0,32.71.07,69.41,69.41,0,0,1,32.55,12a44.46,44.46,0,0,1-2.7,10.82,58,58,0,0,1-2.49,5.65c-.29.58-.32.6-1,.51l-1.49-.22c-1.05-.17-2.09-.36-3.12-.59a46.29,46.29,0,0,1-10.68-3.58A62.7,62.7,0,0,1,0,17.31,66.33,66.33,0,0,0,1.76,29.12,30.46,30.46,0,0,0,5.93,39.3a9.39,9.39,0,0,0,4.14,3.55A20.94,20.94,0,0,0,15,44c3.5.46,7.05.44,10.54,1a27.55,27.55,0,0,1,12.87,5.51"/><path d="M75.2,26.48q0-3.23-1.63-4.48a7.77,7.77,0,0,0-4.75-1.25,20.14,20.14,0,0,0-3.57.3,27,27,0,0,0-3.25.79,8.49,8.49,0,0,1-1-4.31,24.18,24.18,0,0,1,4.09-.92,29.44,29.44,0,0,1,4.31-.33q5.44,0,8.29,2.48c1.89,1.65,2.83,4.3,2.83,7.93V44.2c-1.27.29-2.82.59-4.63.9a33.14,33.14,0,0,1-5.57.46,21.53,21.53,0,0,1-4.82-.49,9.7,9.7,0,0,1-3.66-1.58,7.37,7.37,0,0,1-2.32-2.78,9.41,9.41,0,0,1-.81-4.09,8.52,8.52,0,0,1,1-4.12,8.61,8.61,0,0,1,2.59-2.94A11.61,11.61,0,0,1,66,27.81a17.24,17.24,0,0,1,4.48-.57c1.16,0,2.11,0,2.86.08s1.37.12,1.88.19Zm0,5.29c-.54-.08-1.24-.15-2.07-.22s-1.55-.11-2.13-.11a8.92,8.92,0,0,0-5.15,1.25,4.37,4.37,0,0,0-1.77,3.82,4.66,4.66,0,0,0,.6,2.56,4.15,4.15,0,0,0,1.5,1.42,5.08,5.08,0,0,0,2,.6,18.68,18.68,0,0,0,2.07.11,23.22,23.22,0,0,0,2.59-.14,15.75,15.75,0,0,0,2.37-.4Z"/><path d="M88.4,4.93c.4-.07.84-.12,1.33-.16s.94,0,1.34,0,.85,0,1.36,0,1,.09,1.37.16v40a12.05,12.05,0,0,1-1.37.16c-.51,0-1,.06-1.36.06s-.84,0-1.34-.06a11.84,11.84,0,0,1-1.33-.16Zm5.53,25.56,10.23-13.56c.47-.07.94-.12,1.42-.16s1-.06,1.47-.06,1.06,0,1.55.06,1,.09,1.5.16L101.21,30l10.42,14.89c-.51.07-1,.13-1.47.16s-1,.06-1.47.06-1,0-1.53-.06-1-.09-1.53-.16Z"/><path d="M119.59,32.26q.12,4.58,2.38,6.71t6.68,2.12A20,20,0,0,0,136,39.73a8.5,8.5,0,0,1,.71,2A12.44,12.44,0,0,1,137,44a17.85,17.85,0,0,1-3.95,1.14,27,27,0,0,1-4.77.38,18,18,0,0,1-6.55-1.06,11.56,11.56,0,0,1-7.09-7.58,19.76,19.76,0,0,1-.81-5.81,20.5,20.5,0,0,1,.79-5.81,13,13,0,0,1,2.42-4.69,11.92,11.92,0,0,1,4.12-3.16,13.65,13.65,0,0,1,5.86-1.17,12.38,12.38,0,0,1,5.08,1,10.21,10.21,0,0,1,3.65,2.7A11.73,11.73,0,0,1,138,24.05a17,17,0,0,1,.76,5.15c0,.51,0,1.05,0,1.61s-.08,1.05-.11,1.45Zm13.86-4A10.41,10.41,0,0,0,133,25.3a7.72,7.72,0,0,0-1.2-2.42,5.9,5.9,0,0,0-2-1.67,7.37,7.37,0,0,0-8,1.39,9.88,9.88,0,0,0-2.15,5.62Z"/><path d="M145.88,16.93c.4-.07.79-.12,1.17-.16a11.17,11.17,0,0,1,1.17-.06,9.71,9.71,0,0,1,1.12.06c.35,0,.72.09,1.12.16.11.55.22,1.28.33,2.21a20.19,20.19,0,0,1,.16,2.32,11,11,0,0,1,3.33-3.52,9.94,9.94,0,0,1,5.61-1.66c3.2,0,5.57.92,7.09,2.75s2.3,4.56,2.3,8.16V44.91a12.33,12.33,0,0,1-1.37.16c-.51,0-1,.06-1.36.06s-.85,0-1.34-.06a11.84,11.84,0,0,1-1.33-.16V28.66q0-3.87-1.2-5.7a4.24,4.24,0,0,0-3.82-1.83,7.58,7.58,0,0,0-2.89.55,6.3,6.3,0,0,0-2.4,1.69,8.29,8.29,0,0,0-1.66,3,13.53,13.53,0,0,0-.63,4.39V44.91a12,12,0,0,1-1.34.16c-.49,0-.93.06-1.33.06s-.86,0-1.37-.06a11.86,11.86,0,0,1-1.36-.16Z"/><path d="M181.44,32.26q.1,4.58,2.37,6.71c1.51,1.41,3.73,2.12,6.68,2.12a20,20,0,0,0,7.36-1.36,8.07,8.07,0,0,1,.71,2,13.37,13.37,0,0,1,.33,2.32,17.94,17.94,0,0,1-4,1.14,26.81,26.81,0,0,1-4.77.38,18,18,0,0,1-6.54-1.06,11.5,11.5,0,0,1-7.09-7.58,19.42,19.42,0,0,1-.82-5.81,20.5,20.5,0,0,1,.79-5.81,13.16,13.16,0,0,1,2.43-4.69A11.79,11.79,0,0,1,183,17.45a13.66,13.66,0,0,1,5.87-1.17,12.36,12.36,0,0,1,5.07,1,10.21,10.21,0,0,1,3.65,2.7,11.73,11.73,0,0,1,2.24,4.09,16.7,16.7,0,0,1,.76,5.15c0,.51,0,1.05,0,1.61s-.08,1.05-.11,1.45Zm13.85-4a10.41,10.41,0,0,0-.41-2.92,7.32,7.32,0,0,0-1.2-2.42,5.9,5.9,0,0,0-2-1.67,7.37,7.37,0,0,0-8,1.39,9.88,9.88,0,0,0-2.15,5.62Z"/><path d="M219.07,45.56a13.78,13.78,0,0,1-5.73-1.11,11.4,11.4,0,0,1-4.09-3.09,12.81,12.81,0,0,1-2.43-4.63A20.19,20.19,0,0,1,206,31a20.19,20.19,0,0,1,.79-5.78,12.93,12.93,0,0,1,2.43-4.64,11.68,11.68,0,0,1,4.09-3.11,14.95,14.95,0,0,1,11.45,0,11.68,11.68,0,0,1,4.09,3.11,12.93,12.93,0,0,1,2.43,4.64A20.19,20.19,0,0,1,232.1,31a20.19,20.19,0,0,1-.79,5.78,12.81,12.81,0,0,1-2.43,4.63,11.4,11.4,0,0,1-4.09,3.09A13.74,13.74,0,0,1,219.07,45.56Zm0-4.3a6.2,6.2,0,0,0,5.56-2.73,13.68,13.68,0,0,0,1.8-7.58q0-4.86-1.8-7.55a6.22,6.22,0,0,0-5.56-2.7,6.15,6.15,0,0,0-5.54,2.7q-1.77,2.69-1.77,7.55a13.87,13.87,0,0,0,1.77,7.58A6.13,6.13,0,0,0,219.07,41.26Z"/><path class="cls-1" d="M255.34,26.21c0-2.08-.53-3.53-1.59-4.34a7.41,7.41,0,0,0-4.61-1.22,19,19,0,0,0-3.47.29,25,25,0,0,0-3.15.77,8.31,8.31,0,0,1-1-4.19,24.17,24.17,0,0,1,4-.9,29.31,29.31,0,0,1,4.19-.32q5.29,0,8.06,2.41t2.75,7.71v17q-1.85.42-4.5.87a32.29,32.29,0,0,1-5.41.45,21.07,21.07,0,0,1-4.69-.48,9.58,9.58,0,0,1-3.55-1.53A7.15,7.15,0,0,1,240.08,40a9,9,0,0,1-.8-4,8.29,8.29,0,0,1,.93-4,8.47,8.47,0,0,1,2.52-2.87,11.39,11.39,0,0,1,3.66-1.69,16.6,16.6,0,0,1,4.34-.56c1.13,0,2.06,0,2.78.08s1.34.12,1.83.19Zm0,5.14q-.79-.11-2-.21c-.82-.07-1.5-.11-2.07-.11a8.66,8.66,0,0,0-5,1.22A4.24,4.24,0,0,0,244.53,36a4.54,4.54,0,0,0,.58,2.49,4,4,0,0,0,1.46,1.38,5,5,0,0,0,1.94.58,17.64,17.64,0,0,0,2,.11,24.46,24.46,0,0,0,2.52-.13,15,15,0,0,0,2.3-.4Z"/><path class="cls-1" d="M268.33,16.94a9.36,9.36,0,0,1,1.08-.16,10.74,10.74,0,0,1,1.14-.06,10.94,10.94,0,0,1,1.12.06,9.26,9.26,0,0,1,1.11.16,3.51,3.51,0,0,1,.13.66c.06.37.11.77.16,1.19s.11.83.16,1.22.08.64.08.74a11.13,11.13,0,0,1,1.27-1.64,8.52,8.52,0,0,1,1.78-1.43,9.12,9.12,0,0,1,2.33-1,10.43,10.43,0,0,1,2.89-.37,12.26,12.26,0,0,1,4.42.79,8.89,8.89,0,0,1,3.5,2.47,11.9,11.9,0,0,1,2.28,4.24,19.94,19.94,0,0,1,.82,6.07q0,7-3.79,10.94t-10.73,3.95a17.88,17.88,0,0,1-2.39-.16,14.44,14.44,0,0,1-2.12-.42V56.63a13.16,13.16,0,0,1-1.35.16c-.47,0-.91.05-1.29.05s-.83,0-1.3-.05a11.26,11.26,0,0,1-1.3-.16Zm5.24,22.73a10,10,0,0,0,2.07.53,18.78,18.78,0,0,0,2.76.16,9.64,9.64,0,0,0,3.5-.61,6.87,6.87,0,0,0,2.73-1.88,9.21,9.21,0,0,0,1.8-3.21,14.19,14.19,0,0,0,.66-4.58,12.58,12.58,0,0,0-1.56-6.73,5.59,5.59,0,0,0-5.12-2.49,7.06,7.06,0,0,0-2.54.47,6.38,6.38,0,0,0-2.18,1.44,7.12,7.12,0,0,0-1.53,2.41,9.3,9.3,0,0,0-.59,3.47Z"/><path class="cls-1" d="M299.6,16.94a9.36,9.36,0,0,1,1.08-.16,10.74,10.74,0,0,1,1.14-.06,10.94,10.94,0,0,1,1.12.06,9.56,9.56,0,0,1,1.11.16,3.51,3.51,0,0,1,.13.66c.05.37.11.77.16,1.19s.11.83.16,1.22.08.64.08.74a11.13,11.13,0,0,1,1.27-1.64,8.52,8.52,0,0,1,1.78-1.43,9.12,9.12,0,0,1,2.33-1,10.38,10.38,0,0,1,2.89-.37,12.26,12.26,0,0,1,4.42.79,8.89,8.89,0,0,1,3.5,2.47,11.9,11.9,0,0,1,2.28,4.24,19.94,19.94,0,0,1,.82,6.07q0,7-3.79,10.94t-10.73,3.95A17.88,17.88,0,0,1,307,44.6a14.18,14.18,0,0,1-2.12-.42V56.63a13.16,13.16,0,0,1-1.35.16c-.47,0-.91.05-1.3.05s-.82,0-1.29-.05a11.26,11.26,0,0,1-1.3-.16Zm5.24,22.73a9.83,9.83,0,0,0,2.07.53,18.78,18.78,0,0,0,2.76.16,9.64,9.64,0,0,0,3.5-.61,6.77,6.77,0,0,0,2.72-1.88,9.22,9.22,0,0,0,1.81-3.21,14.19,14.19,0,0,0,.66-4.58,12.58,12.58,0,0,0-1.56-6.73,5.59,5.59,0,0,0-5.12-2.49,7.06,7.06,0,0,0-2.54.47A6.28,6.28,0,0,0,307,22.77a7.12,7.12,0,0,0-1.53,2.41,9.3,9.3,0,0,0-.59,3.47Z"/><path d="M266.47,77.76c-.2,1.14-.37,2.1-.52,2.89a12.22,12.22,0,0,0-.23,2.27c0,.28,0,.5,0,.67s0,.37.08.59a4.81,4.81,0,0,1-.5,0l-.52,0-.49,0a3.73,3.73,0,0,1-.47,0,2,2,0,0,1-.07-.48,6,6,0,0,1,0-.66c0-.14,0-.33,0-.56s.05-.47.09-.73.08-.52.14-.78.1-.5.16-.72a7.36,7.36,0,0,1-.79,1.36,8.77,8.77,0,0,1-1.28,1.4,7,7,0,0,1-1.68,1.09,4.76,4.76,0,0,1-2,.44,3.55,3.55,0,0,1-3-1.34,6,6,0,0,1-1-3.73,12.52,12.52,0,0,1,.65-4A10.84,10.84,0,0,1,256.9,72a9.32,9.32,0,0,1,7.47-3.43c.26,0,.55,0,.87,0s.6.07.84.11c.2-1.14.38-2.14.52-3a13,13,0,0,0,.23-2.37v-.63q0-.21,0-.54a4.55,4.55,0,0,1,.53-.05h1a2.49,2.49,0,0,1,.45,0c0,.22,0,.41,0,.58v.5c0,.24,0,.54,0,.9s-.08.73-.14,1.12l-.18,1.19q-.09.6-.18,1.08Zm-.63-7.29a8.45,8.45,0,0,0-2.07-.21,6.24,6.24,0,0,0-2.86.67,7.14,7.14,0,0,0-2.33,1.88A9.16,9.16,0,0,0,257,75.63a10.5,10.5,0,0,0-.57,3.51,4.9,4.9,0,0,0,.63,2.68,2.05,2.05,0,0,0,1.83,1,3.56,3.56,0,0,0,2.11-.72,7.47,7.47,0,0,0,1.82-1.92,12.72,12.72,0,0,0,1.39-2.76,19.43,19.43,0,0,0,.92-3.24Z"/><path d="M272.65,78.18a5.06,5.06,0,0,0,1.05,3.39A4.15,4.15,0,0,0,277,82.8a8.5,8.5,0,0,0,1.2-.09c.42-.06.82-.14,1.2-.23s.74-.18,1.08-.28l.87-.27a3.1,3.1,0,0,1,.22.79,5.37,5.37,0,0,1,.08.83,9.44,9.44,0,0,1-1,.36c-.41.12-.84.22-1.3.31s-.93.17-1.41.23a10.92,10.92,0,0,1-1.35.09,7.52,7.52,0,0,1-2.87-.48,4.84,4.84,0,0,1-1.86-1.31,4.9,4.9,0,0,1-1-1.92,8.73,8.73,0,0,1-.3-2.32,11.15,11.15,0,0,1,2.38-6.81,9.18,9.18,0,0,1,2.7-2.3,7,7,0,0,1,3.47-.88,4.11,4.11,0,0,1,3,1,3.18,3.18,0,0,1,1,2.36,3.86,3.86,0,0,1-.63,2.22,5.21,5.21,0,0,1-1.74,1.57,11.18,11.18,0,0,1-2.63,1.07,28.53,28.53,0,0,1-3.25.69l-2.19.36Zm2-2.37a16.1,16.1,0,0,0,4.72-1.35A2.68,2.68,0,0,0,281,72a1.65,1.65,0,0,0-.57-1.31,2.5,2.5,0,0,0-1.68-.49,4.21,4.21,0,0,0-2,.49,6.62,6.62,0,0,0-1.7,1.31,8.59,8.59,0,0,0-1.32,1.87,9.63,9.63,0,0,0-.82,2.18Z"/><path d="M286.6,75.24c.2-1.14.37-2.11.52-2.9a12.12,12.12,0,0,0,.23-2.26,6.55,6.55,0,0,0,0-.68,4.76,4.76,0,0,0-.07-.58,4.14,4.14,0,0,1,.5,0h1a3.35,3.35,0,0,1,.47,0,2.65,2.65,0,0,1,.07.48c0,.16,0,.38,0,.66s0,.54,0,.79-.05.49-.09.71a8.34,8.34,0,0,1,2.19-2.07,5.33,5.33,0,0,1,3-.87,3.27,3.27,0,0,1,2.46.87,3.78,3.78,0,0,1,1,2.31,8.57,8.57,0,0,1,2.41-2.33,5.63,5.63,0,0,1,3.05-.85q3.48,0,3.48,3.9a9.85,9.85,0,0,1-.06,1q-.06.57-.15,1.08l-1.68,9.66a4.81,4.81,0,0,1-.5,0l-.52,0-.49,0a3.73,3.73,0,0,1-.47,0l1.59-9.06c.06-.36.11-.73.15-1.1a9.12,9.12,0,0,0,.06-1,3.2,3.2,0,0,0-.54-2.06,2.15,2.15,0,0,0-1.74-.64,3.88,3.88,0,0,0-1.61.36,4.44,4.44,0,0,0-1.48,1.15,8.45,8.45,0,0,0-1.26,2.06,12.41,12.41,0,0,0-.87,3.06L296,84.18a4.58,4.58,0,0,1-.49,0l-.53,0-.5,0a3.54,3.54,0,0,1-.46,0l1.59-9.06c.06-.36.11-.73.15-1.1a9.12,9.12,0,0,0,.06-1,3.2,3.2,0,0,0-.54-2.06,2.15,2.15,0,0,0-1.74-.64,3.88,3.88,0,0,0-1.61.36,4.35,4.35,0,0,0-1.48,1.15,8.45,8.45,0,0,0-1.26,2.06,12.41,12.41,0,0,0-.87,3.06L287,84.18a4.81,4.81,0,0,1-.5,0l-.52,0-.49,0a3.56,3.56,0,0,1-.47,0Z"/><path d="M315.49,84.54a5.16,5.16,0,0,1-3.95-1.49,6.09,6.09,0,0,1-1.39-4.33,12.57,12.57,0,0,1,.49-3.35,11.21,11.21,0,0,1,1.53-3.31,8.77,8.77,0,0,1,2.64-2.54,7,7,0,0,1,3.8-1A5.17,5.17,0,0,1,322.56,70,6.16,6.16,0,0,1,324,74.34a12.53,12.53,0,0,1-.5,3.34A11.26,11.26,0,0,1,321.92,81a8.74,8.74,0,0,1-2.64,2.53A7,7,0,0,1,315.49,84.54Zm.21-1.74a4.69,4.69,0,0,0,2.77-.81,6.77,6.77,0,0,0,1.91-2,9.43,9.43,0,0,0,1.11-2.73,12.22,12.22,0,0,0,.36-2.85,4.55,4.55,0,0,0-.92-3.05,3.15,3.15,0,0,0-2.53-1.06,4.73,4.73,0,0,0-2.78.81,6.74,6.74,0,0,0-1.9,2,9.43,9.43,0,0,0-1.11,2.73,12.22,12.22,0,0,0-.36,2.85,4.52,4.52,0,0,0,.91,3A3.18,3.18,0,0,0,315.7,82.8Z"/></svg>